<svg aria-hidden="true" focusable="false" data-prefix="gfas" data-icon="news" class="svg-inline--fa" role="img" xmlns="http://www.w3.org/2000/svg" viewBox="0 0 18 18" style="font-size:100%"><g transform="translate(-25.000000, -121.000000)" fill="currentColor"><g transform="translate(0.000000, 110.000000)"><g transform="translate(22.000000, 7.000000)"><path d="M12,4 C16.9705627,4 21,8.02943725 21,13 C21,17.9705627 16.9705627,22 12,22 C7.02943725,22 3,17.9705627 3,13 C3,8.02943725 7.02943725,4 12,4 Z M13.0175068,7.7010927 L7.31100149,13.8641184 C7.23595615,13.9451674 7.24082305,14.0717068 7.32187202,14.1467521 C7.35884186,14.1809835 7.40736956,14.2 7.45775362,14.2 L11.7188422,14.2 C11.8292992,14.2 11.9188422,14.2895431 11.9188422,14.4 C11.9188422,14.4223319 11.9151021,14.444506 11.907777,14.4656023 L10.6467459,18.0973718 C10.6105147,18.2017176 10.6657325,18.3156777 10.7700783,18.3519089 C10.8451235,18.3779663 10.9284764,18.3571383 10.982444,18.2988436 L16.6890616,12.1346694 C16.7641002,12.0536142 16.7592228,11.9270752 16.6781676,11.8520366 C16.6411991,11.8178122 16.5926765,11.7988 16.5422982,11.7988 L12.2811808,11.7988 C12.1707239,11.7988 12.0811808,11.7092569 12.0811808,11.5988 C12.0811808,11.5764629 12.0849227,11.5542837 12.0922512,11.533183 L13.3531885,7.90259128 C13.3894278,7.79824831 13.3342188,7.68428391 13.2298759,7.64804465 C13.154833,7.62198159 13.0714789,7.64280275 13.0175068,7.7010927 Z"></path></g></g></g></svg>