<svg aria-hidden="true" focusable="false" data-prefix="gfas" data-icon="playstation" class="svg-inline--fa" role="img" xmlns="http://www.w3.org/2000/svg" viewBox="0 0 22 17"><g id="Web" stroke="none" stroke-width="1" fill="none"><g transform="translate(-639.000000, -1003.000000)" fill="currentColor"><g transform="translate(630.000000, 992.000000)"><g><path d="M12.0481445,21.698468 C13.5263717,21.1789809 15.0030392,20.6542608 16.4818903,20.1366315 C16.4842298,20.7125974 16.4818903,21.288873 16.4828261,21.8654892 C16.4818903,21.9436739 16.4868502,22.0221682 16.4770864,22.0998885 C15.3082113,22.5111866 14.1415199,22.9296993 12.9738926,23.3435984 C12.811995,23.4043812 12.6459175,23.473029 12.5210786,23.5957093 C12.4629328,23.6532718 12.4154865,23.7383925 12.4472733,23.8207574 C12.4872954,23.9178613 12.5871478,23.9708102 12.679264,24.0106921 C12.9354302,24.1141127 13.2154599,24.1288827 13.4883773,24.1412064 C13.7926136,24.1364379 14.0982536,24.1138031 14.3961263,24.0485614 C14.5975468,24.0091439 14.7913871,23.9418896 14.9833557,23.8703002 C15.4823681,23.6909863 15.9813494,23.5105886 16.4811416,23.3331325 C16.4846978,23.8204478 16.4817343,24.3080727 16.4826701,24.7959764 C16.4811416,24.8934209 16.4871621,24.9914846 16.4773983,25.0884337 C15.8636539,25.1978923 15.2426413,25.2720826 14.61879,25.2819292 C13.3626337,25.3100757 12.1035141,25.1170756 10.9102764,24.7273286 C10.5190397,24.6148355 10.1301425,24.4649067 9.80329048,24.2183384 C9.62339396,24.080114 9.46243228,23.9063117 9.38057889,23.6925345 C9.3120454,23.5113627 9.31700526,23.3023231 9.40244597,23.1276228 C9.48476727,22.9532322 9.62866577,22.8156271 9.78716312,22.7085217 C10.1537253,22.457154 10.5582819,22.2653614 10.9679543,22.0945007 C11.3213526,21.9452221 11.687634,21.8288585 12.0481445,21.698468 Z M17.1444847,11.1111111 C18.0528576,11.279185 18.9457271,11.5193128 19.8343853,11.7695968 C20.3425376,11.9161196 20.8495981,12.0677515 21.3532585,12.2291991 C22.1444039,12.4793282 22.9321179,12.7625582 23.6486782,13.1849105 C23.9696657,13.3783751 24.277926,13.5969517 24.5413916,13.8635539 C24.8267867,14.1417057 25.0605866,14.4676354 25.2320296,14.8263252 C25.5445011,15.4740353 25.651497,16.1976078 25.6831278,16.9090423 C25.6980074,17.3732583 25.6970716,17.8414996 25.6096032,18.2997085 C25.5370457,18.6979087 25.4080268,19.0905663 25.1934112,19.436437 C25.0039381,19.7418064 24.7404725,20.0060862 24.4207328,20.1763276 C24.1140321,20.3404072 23.7629422,20.4186228 23.4151589,20.4116869 C22.8876039,20.4170746 22.3757395,20.2502083 21.9023374,20.031353 C21.8936655,18.4685875 21.9009337,16.9055124 21.8986253,15.3430256 C21.89535,15.060291 21.9147527,14.7746149 21.8571995,14.495689 C21.8167408,14.2795895 21.7280559,14.061787 21.5570185,13.9151094 C21.443815,13.8136705 21.2967971,13.7564176 21.1491865,13.7254843 C20.9998602,13.6973069 20.8406142,13.7602572 20.748186,13.8792528 C20.5945237,14.0698067 20.5542209,14.3228466 20.5472335,14.5600327 C20.5459857,18.7437977 20.5487932,22.9276867 20.5459857,27.1111111 C19.4120169,26.754403 18.2781728,26.3973543 17.1444847,26.0396863 C17.1433929,21.0635462 17.1438298,16.087406 17.1444847,11.1111111 Z M24.9518377,20.9825716 C26.0605393,20.9867208 27.1751366,21.1235827 28.2357992,21.4538783 C28.4438952,21.5166738 28.6454717,21.5981098 28.8527878,21.6635373 C29.2224694,21.7975815 29.5924629,21.9601438 29.888308,22.2239591 C30.0660209,22.3848184 30.2193712,22.601692 30.2213989,22.8491892 C30.2319425,23.0508284 30.1401382,23.2441382 30.008343,23.3926736 C29.7577294,23.6715996 29.4265414,23.8633611 29.0940744,24.0305371 C28.7400522,24.2096962 28.3595151,24.3252858 27.988305,24.4616833 C25.7225197,25.2692927 23.4563913,26.0766235 21.1910428,26.8851619 L21.1911324,24.9509377 C21.1925635,24.9359859 21.1980302,24.9233602 21.2158733,24.920047 C22.939879,24.3112899 24.6634168,23.700675 26.3872666,23.0900601 C26.6203179,23.0035769 26.8713682,22.9409363 27.0690765,22.7840714 C27.1500253,22.7209663 27.2292584,22.6206111 27.1895794,22.5122672 C27.1481537,22.4175786 27.0492371,22.365249 26.9582126,22.3260173 C26.7001748,22.2245784 26.4192093,22.205009 26.1447322,22.1973299 C25.7150643,22.2002405 25.2816532,22.2527249 24.8729166,22.3895869 C23.6449598,22.8167077 22.4193114,23.2490615 21.1910428,23.6748199 C21.1911987,22.998344 21.190606,22.3223016 21.1913547,21.6459805 C22.0797322,21.336431 23.0076326,21.1488186 23.9420527,21.0421468 C24.2772959,21.0036582 24.6147228,20.9945857 24.9518377,20.9825716 Z"></path></g></g></g></g></svg>