<svg aria-hidden="true" focusable="false" data-prefix="gfas" data-icon="xbox" class="svg-inline--fa" role="img" xmlns="http://www.w3.org/2000/svg" viewBox="0 0 18 18"><g id="Web" stroke="none" stroke-width="1" fill="none"><g transform="translate(-641.000000, -1076.000000)" fill="currentColor"><g transform="translate(630.000000, 1066.000000)"><path d="M20.0004676,17.351639 C20.0107401,17.351639 20.0219719,17.3600395 20.0285004,17.3656554 C22.6884979,19.3882242 27.2411028,24.3885338 25.8513063,25.8026425 L25.8531783,25.8007705 L25.8522423,25.8026425 L25.8503703,25.8026425 C24.2324042,27.2227882 22.1523426,28.0046394 19.9995316,28.0018623 C17.8464633,28.0044288 15.7661911,27.2226244 14.147757,25.8026425 L14.145885,25.8007705 L14.147757,25.8026425 C12.7607685,24.3885338 17.3124373,19.3882242 19.9696269,17.3656554 C19.9770914,17.3600395 19.9892592,17.351639 20.0004676,17.351639 M20.0004676,10.2222222 C21.7940478,10.2222222 23.2698378,10.713848 24.6306656,11.5232406 C24.6474899,11.531641 24.6521699,11.5503373 24.645618,11.5671617 C24.6390895,11.58305 24.6203932,11.5867939 24.6026329,11.582114 C22.8819659,11.2101304 20.2659128,12.6971289 20.0191639,12.8457398 C20.013548,12.8494837 20.0079555,12.8532277 20.0004676,12.8532277 C19.9920672,12.8532277 19.9864513,12.8494837 19.9808354,12.8457398 C19.3247337,12.4690762 16.9068051,11.2017065 15.384286,11.5914738 C15.3674617,11.5951944 15.3487654,11.5923864 15.3413009,11.5755621 C15.3347022,11.5592526 15.3410669,11.5405563 15.3562533,11.531641 C16.717081,10.713848 18.2115674,10.2222222 20.0004676,10.2222222 M26.2373063,12.7784425 L26.2457301,12.7859304 L26.2457301,12.7868664 C27.9398152,14.4549778 28.8922495,16.7340531 28.8888889,19.1115706 C28.8915475,21.057295 28.2529722,22.9496917 27.071947,24.4960082 C27.0607386,24.5109605 27.0411063,24.5193844 27.024282,24.5109605 C27.0093296,24.5016241 27.0083937,24.4819918 27.0139862,24.4651675 C27.6916155,22.369709 24.2306493,17.2871497 22.441749,15.1571065 C22.4351971,15.1496187 22.4286686,15.1412182 22.4286686,15.1318818 C22.4286686,15.118778 22.4361331,15.1094415 22.445493,15.1019537 C25.4568825,12.1055165 26.2550666,12.7952668 26.2447942,12.7859304 M13.763629,12.7784425 L13.7552051,12.7859304 L13.7552051,12.7868664 C12.0609563,14.4549544 11.1081943,16.7339595 11.1111111,19.1115706 C11.1084751,21.057295 11.7470271,22.9496917 12.9280523,24.4960082 C12.9402201,24.5109605 12.958893,24.5193844 12.9757173,24.5109605 C12.9916056,24.5016241 12.9925416,24.4819918 12.9860131,24.4651675 C12.3083838,22.369709 15.772158,17.2908936 17.5619942,15.1617865 C17.5676101,15.1542986 17.5750746,15.1458981 17.5750746,15.1356023 C17.5750746,15.1234579 17.5666741,15.1141215 17.5582502,15.1066336 C14.5477967,12.1101964 13.7439967,12.7952668 13.7552051,12.7859304"></path></g></g></g></svg>