<?xml version="1.0" standalone="no"?><!DOCTYPE svg PUBLIC "-//W3C//DTD SVG 1.1//EN" "http://www.w3.org/Graphics/SVG/1.1/DTD/svg11.dtd"><svg t="1644217998212" class="icon" viewBox="0 0 1024 1024" version="1.1" xmlns="http://www.w3.org/2000/svg" p-id="5627" xmlns:xlink="http://www.w3.org/1999/xlink" width="200" height="200"><defs><style type="text/css">:not(pre) { -webkit-text-stroke: 0.2px !important; }
</style></defs><path d="M625.3056 936.2944H222.72c-73.5232 0-133.12-59.5968-133.12-133.12V400.5888c0-73.5232 59.5968-133.12 133.12-133.12h402.5856c73.5232 0 133.12 59.5968 133.12 133.12v402.5856c0 73.472-59.5968 133.12-133.12 133.12z" fill="#A5ADF6" p-id="5628"></path><path d="M805.0176 756.5312H402.432c-73.5232 0-133.12-59.5968-133.12-133.12V220.8256c0-73.5232 59.5968-133.12 133.12-133.12h402.5856c73.5232 0 133.12 59.5968 133.12 133.12v402.5856c0 73.5232-59.5968 133.12-133.12 133.12z" fill="#A5ADF6" p-id="5629"></path><path d="M622.3872 267.4688H269.312v353.0752c0 75.1104 60.928 136.0384 136.0384 136.0384h353.0752V403.5072c0-75.1616-60.928-136.0384-136.0384-136.0384z" fill="#635DF7" p-id="5630"></path><path d="M752.5888 232.96l-93.8496-23.296a41.31328 41.31328 0 0 0-51.2512 40.192l0.3584 123.1872c-10.1888-2.9696-20.9408-4.608-32.1024-4.5568-63.0272 0.2048-113.9712 51.456-113.7664 114.4832 0.2048 63.0272 51.456 113.9712 114.4832 113.7664 59.0848-0.2048 107.5712-45.2608 113.2032-102.8608 0.6656-3.0208 1.1776-6.0928 1.1264-9.2672l-0.5632-182.016 42.4448 10.5472c22.1184 5.5296 44.544-7.9872 50.0224-30.1056 5.5296-22.1696-7.9872-44.5952-30.1056-50.0736z" fill="#F7F8F8" p-id="5631"></path></svg>