<?xml version="1.0" standalone="no"?><!DOCTYPE svg PUBLIC "-//W3C//DTD SVG 1.1//EN" "http://www.w3.org/Graphics/SVG/1.1/DTD/svg11.dtd"><svg t="1644218054723" class="icon" viewBox="0 0 1024 1024" version="1.1" xmlns="http://www.w3.org/2000/svg" p-id="5931" xmlns:xlink="http://www.w3.org/1999/xlink" width="200" height="200"><defs><style type="text/css">:not(pre) { -webkit-text-stroke: 0.2px !important; }
</style></defs><path d="M883.6096 594.8928l-296.5504 296.5504c-42.6496 42.6496-111.8208 42.6496-154.4704 0l-303.616-303.616c-103.2192-103.2192-103.2192-270.5408 0-373.76 103.2192-103.2192 270.5408-103.2192 373.76 0l380.8768 380.8256z" fill="#F85F69" p-id="5932"></path><path d="M136.2432 594.7392l296.5504 296.5504c42.6496 42.6496 111.8208 42.6496 154.4704 0l303.4624-303.4624c103.2192-103.2192 103.2192-270.5408 0-373.76-103.2192-103.2192-270.5408-103.2192-373.76 0l-380.7232 380.672z" fill="#F498A6" p-id="5933"></path><path d="M136.2432 594.7392l294.2976 294.2976c43.8272 43.8272 114.944 43.8784 158.8224 0.1024l294.2464-294.2464-373.76-373.76-373.6064 373.6064z" fill="#F33B3D" p-id="5934"></path></svg>