<?xml version="1.0" standalone="no"?><!DOCTYPE svg PUBLIC "-//W3C//DTD SVG 1.1//EN" "http://www.w3.org/Graphics/SVG/1.1/DTD/svg11.dtd"><svg t="1644217984206" class="icon" viewBox="0 0 1024 1024" version="1.1" xmlns="http://www.w3.org/2000/svg" p-id="5477" xmlns:xlink="http://www.w3.org/1999/xlink" width="200" height="200"><defs><style type="text/css">:not(pre) { -webkit-text-stroke: 0.2px !important; }
</style></defs><path d="M649.472 942.1824H296.8576c-73.5232 0-133.12-59.5968-133.12-133.12V223.8464c0-73.5232 59.5968-133.12 133.12-133.12h457.472c73.5232 0 133.12 59.5968 133.12 133.12v401.3056l-237.9776 317.0304z" fill="#FFD05C" p-id="5478"></path><path d="M689.5616 332.3904h-325.12c-22.6304 0-40.96-18.3296-40.96-40.96s18.3296-40.96 40.96-40.96h325.12c22.6304 0 40.96 18.3296 40.96 40.96s-18.3296 40.96-40.96 40.96zM689.5616 502.4768h-325.12c-22.6304 0-40.96-18.3296-40.96-40.96s18.3296-40.96 40.96-40.96h325.12c22.6304 0 40.96 18.3296 40.96 40.96s-18.3296 40.96-40.96 40.96zM564.4288 672.5632H364.4416c-22.6304 0-40.96-18.3296-40.96-40.96s18.3296-40.96 40.96-40.96h199.9872c22.6304 0 40.96 18.3296 40.96 40.96s-18.3296 40.96-40.96 40.96z" fill="#FFFFFF" p-id="5479"></path><path d="M743.6288 625.0496c-52.0192 0-94.208 42.1888-94.208 94.208v222.9248h0.1024l237.9264-317.0816v-0.1024h-143.8208z" fill="#FCA235" p-id="5480"></path></svg>