<?xml version="1.0" standalone="no"?><!DOCTYPE svg PUBLIC "-//W3C//DTD SVG 1.1//EN" "http://www.w3.org/Graphics/SVG/1.1/DTD/svg11.dtd"><svg t="1644217156881" class="icon" viewBox="0 0 1024 1024" version="1.1" xmlns="http://www.w3.org/2000/svg" p-id="5026" xmlns:xlink="http://www.w3.org/1999/xlink" width="200" height="200"><defs><style type="text/css">:not(pre) { -webkit-text-stroke: 0.2px !important; }
</style></defs><path d="M533.9136 674.1504h-27.648c-115.3536 0-208.8448-93.4912-208.8448-208.8448V264.9088c0-122.9824 99.6864-222.6688 222.6688-222.6688 122.9824 0 222.6688 99.6864 222.6688 222.6688v200.3968c0 115.3536-93.4912 208.8448-208.8448 208.8448z" fill="#80B7F9" p-id="5027"></path><path d="M828.0576 317.44H212.1728a46.08 46.08 0 0 0-46.08 46.08v90.0608c0 180.736 135.424 329.728 310.3744 351.232v86.1696H343.4496c-24.1152 0-43.6736 19.5584-43.6736 43.6736 0 24.1152 19.5584 43.6736 43.6736 43.6736h353.3312c24.1152 0 43.6736-19.5584 43.6736-43.6736 0-24.1152-19.5584-43.6736-43.6736-43.6736h-132.9664v-86.1696c174.8992-21.5552 310.3744-170.496 310.3744-351.232V363.52c-0.0512-25.4464-20.6848-46.08-46.1312-46.08z" fill="#80B7F9" p-id="5028"></path><path d="M297.472 317.44v134.0416c0 122.9824 99.6864 222.6688 222.6688 222.6688 122.9824 0 222.6688-99.6864 222.6688-222.6688V317.44H297.472z" fill="#3E8BF8" p-id="5029"></path><path d="M520.1408 703.4368c-84.224 0-160.1024-46.7968-197.9392-122.112-10.1376-20.224-1.9968-44.8512 18.2272-54.9888 20.224-10.1376 44.8512-1.9968 54.9888 18.2272 23.8592 47.4624 71.68 76.9536 124.7232 76.9536 53.248 0 101.0688-29.5936 124.8768-77.2608 10.1376-20.224 34.7136-28.4672 54.9376-18.3296 20.224 10.0864 28.4672 34.7136 18.3296 54.9376-37.7344 75.5712-113.664 122.5728-198.144 122.5728z" fill="#FFFFFF" p-id="5030"></path></svg>