<?xml version="1.0" standalone="no"?><!DOCTYPE svg PUBLIC "-//W3C//DTD SVG 1.1//EN" "http://www.w3.org/Graphics/SVG/1.1/DTD/svg11.dtd"><svg t="1644217945869" class="icon" viewBox="0 0 1024 1024" version="1.1" xmlns="http://www.w3.org/2000/svg" p-id="5328" xmlns:xlink="http://www.w3.org/1999/xlink" width="200" height="200"><defs><style type="text/css">:not(pre) { -webkit-text-stroke: 0.2px !important; }
</style></defs><path d="M405.0432 88.6272L97.3824 271.2064a76.09344 76.09344 0 0 0-37.2224 66.304l4.3008 357.7344c0.3072 27.136 15.104 52.0704 38.8096 65.3824l311.9616 175.1552a75.9808 75.9808 0 0 0 76.032-0.9216l307.6608-182.5792c23.3472-13.8752 37.5296-39.1168 37.2224-66.304l-4.3008-357.7344c-0.3072-27.136-15.104-52.0704-38.8096-65.3824L481.0752 87.7056a75.9808 75.9808 0 0 0-76.032 0.9216z" fill="#A5ADF6" p-id="5329"></path><path d="M719.2576 513.9968l-126.208 74.9056a76.09344 76.09344 0 0 0-37.2224 66.304l1.792 146.7392c0.3072 27.136 15.104 52.0704 38.8096 65.3824l127.9488 71.8336a75.9808 75.9808 0 0 0 76.032-0.9216l126.208-74.9056c23.3472-13.8752 37.5296-39.1168 37.2224-66.304l-1.792-146.7392c-0.3072-27.136-15.104-52.0704-38.8096-65.3824l-127.9488-71.8336a75.9808 75.9808 0 0 0-76.032 0.9216z" fill="#A5ADF6" p-id="5330"></path><path d="M836.1472 684.7488l-1.792-149.76-38.0416-21.3504a77.96736 77.96736 0 0 0-78.0288 0.9216l-124.2112 73.728a78.04416 78.04416 0 0 0-38.1952 68.0448l1.7408 144.384c0.3584 27.8528 15.5136 53.4528 39.8336 67.1232l3.4304 1.9456 197.0688-116.9408c23.9616-14.2336 38.5024-40.192 38.1952-68.096z" fill="#635DF7" p-id="5331"></path><path d="M448.1536 720.4352c-115.0976 0-208.6912-93.6448-208.6912-208.6912s93.6448-208.6912 208.6912-208.6912c115.0976 0 208.6912 93.6448 208.6912 208.6912s-93.5936 208.6912-208.6912 208.6912z m0-335.5136c-69.888 0-126.7712 56.8832-126.7712 126.7712s56.8832 126.7712 126.7712 126.7712 126.7712-56.8832 126.7712-126.7712-56.832-126.7712-126.7712-126.7712z" fill="#FFFFFF" p-id="5332"></path></svg>