<?xml version="1.0" standalone="no"?><!DOCTYPE svg PUBLIC "-//W3C//DTD SVG 1.1//EN" "http://www.w3.org/Graphics/SVG/1.1/DTD/svg11.dtd"><svg t="1644217095862" class="icon" viewBox="0 0 1024 1024" version="1.1" xmlns="http://www.w3.org/2000/svg" p-id="4725" xmlns:xlink="http://www.w3.org/1999/xlink" width="200" height="200"><defs><style type="text/css">:not(pre) { -webkit-text-stroke: 0.2px !important; }
</style></defs><path d="M806.0416 805.632c0 71.7824-58.2144 129.9968-129.9968 129.9968H242.0736c-70.1952 0-127.1296-59.1872-127.1296-132.1472V222.464c0-72.96 56.9344-132.1472 127.1296-132.1472h436.8384c70.1952 0 127.1296 59.1872 127.1296 132.1472v583.168z" fill="#80B7F9" p-id="4726"></path><path d="M806.0416 805.632c0 71.7824-58.2144 129.9968-129.9968 129.9968H242.0736c-70.1952 0-127.1296-59.1872-127.1296-132.1472V222.464c0-72.96 56.9344-132.1472 127.1296-132.1472h436.8384c70.1952 0 127.1296 59.1872 127.1296 132.1472v583.168z" fill="#80B7F9" p-id="4727"></path><path d="M636.928 330.5472H314.2144c-22.6304 0-40.96-18.3296-40.96-40.96s18.3296-40.96 40.96-40.96h322.7136c22.6304 0 40.96 18.3296 40.96 40.96s-18.3296 40.96-40.96 40.96zM500.5312 522.24H314.2144c-22.6304 0-40.96-18.3296-40.96-40.96s18.3296-40.96 40.96-40.96h186.3168c22.6304 0 40.96 18.3296 40.96 40.96s-18.3296 40.96-40.96 40.96zM501.2992 713.9328H314.2144c-22.6304 0-40.96-18.3296-40.96-40.96s18.3296-40.96 40.96-40.96h187.0848c22.6304 0 40.96 18.3296 40.96 40.96s-18.3808 40.96-40.96 40.96z" fill="#FFFFFF" p-id="4728"></path><path d="M660.8384 935.5264h148.3776c58.7776 0 106.8544-48.0768 106.8544-106.8544v-312.0128c0-58.7776-48.0768-106.8544-106.8544-106.8544h-148.3776a18.6368 18.6368 0 0 0-18.6368 18.6368v488.3968c0 10.2912 8.3456 18.688 18.6368 18.688z" fill="#80B7F9" p-id="4729"></path><path d="M642.2016 428.288v488.6528c0 10.24 8.2944 18.5344 18.5344 18.5344h18.9952c70.0928-1.9456 126.3104-59.2896 126.3104-129.8432V409.8048h-145.3056c-10.24 0-18.5344 8.2944-18.5344 18.4832z" fill="#3E8BF8" p-id="4730"></path></svg>